<?xml version="1.0" encoding="utf-8"?>
<!-- Generator: Adobe Illustrator 16.0.0, SVG Export Plug-In . SVG Version: 6.00 Build 0)  -->
<!DOCTYPE svg PUBLIC "-//W3C//DTD SVG 1.1//EN" "http://www.w3.org/Graphics/SVG/1.1/DTD/svg11.dtd">
<svg version="1.1" id="Layer_1" xmlns="http://www.w3.org/2000/svg" xmlns:xlink="http://www.w3.org/1999/xlink" x="0px" y="0px"
	 width="380px" height="420px" viewBox="0 0 380 420" enable-background="new 0 0 380 420" xml:space="preserve">
<g>
	<defs>
		<rect id="SVGID_1_" width="380" height="420"/>
	</defs>
	<clipPath id="SVGID_2_">
		<use xlink:href="#SVGID_1_"  overflow="visible"/>
	</clipPath>
	<path clip-path="url(#SVGID_2_)" d="M209.345,341.16c2.664-1.816,5.986-2.331,9.147-2.299c3.591-0.069,7.176,0.588,10.574,1.724
		c0.102,2.487,0.32,4.964,0.498,7.446c-3.905-0.937-7.92-1.98-11.962-1.434c-1.009,0.143-2.313,0.789-2.239,1.977
		c-0.266,1.583,1.481,2.221,2.627,2.769c3.937,1.624,8.472,2.691,11.305,6.122c2.017,2.856,1.958,6.739,0.79,9.918
		c-1.36,3.632-5.292,5.438-8.897,5.968c-4.652,0.516-9.457,0.133-13.882-1.441c-0.319-2.491-0.36-5.005-0.57-7.505
		c3.695,0.972,7.51,1.871,11.359,1.528c1.196-0.215,2.719-0.548,3.221-1.815c0.538-1.118,0.261-2.678-0.876-3.313
		c-2.399-1.415-5.182-1.999-7.654-3.267c-2.455-1.163-5.02-2.714-6.082-5.352C205.362,348.459,206.005,343.646,209.345,341.16"/>
	<path clip-path="url(#SVGID_2_)" d="M288.486,339.265c5.816-1.224,11.856-0.27,17.51,1.309c0.178,2.511,0.359,5.015,0.52,7.523
		c-3.731-0.994-7.574-1.843-11.46-1.756c-2.568,0.05-5.273,1.025-6.721,3.266c-1.587,2.637-1.61,5.849-1.382,8.824
		c0.288,2.349,1.122,4.922,3.229,6.254c2.382,1.574,5.411,1.419,8.104,0.936c0.045-2.021,0.041-4.042,0.004-6.063
		c-1.537-0.005-3.075-0.005-4.608,0.004v-5.771c4.494,0.019,8.992-0.009,13.491,0.015c-0.009,5.784,0.022,11.574-0.023,17.358
		c-5.552,2.162-11.711,2.983-17.614,2.049c-4.539-0.789-9.028-3.546-10.767-7.971c-2.177-5.493-2.222-11.843-0.278-17.409
		C279.936,343.406,284.047,340.29,288.486,339.265"/>
	<path clip-path="url(#SVGID_2_)" d="M68.389,339.286c3.043,0.005,6.086-0.022,9.129,0.019c0.009,6.386,0,12.776,0.004,19.167
		c0.032,1.603,0.183,3.342,1.205,4.66c1.683,2.409,5.31,2.763,7.756,1.363c1.884-1.154,2.614-3.441,2.632-5.535
		c0.041-6.553,0-13.106,0.018-19.655c3.029-0.045,6.059-0.01,9.088-0.023c0.091,6.513,0.037,13.03,0.027,19.543
		c0.051,4.081-1.437,8.275-4.484,11.087c-2.774,2.438-6.542,3.52-10.201,3.528c-3.892,0.05-7.979-1.041-10.867-3.741
		c-2.861-2.794-4.325-6.829-4.302-10.779C68.375,352.375,68.389,345.83,68.389,339.286"/>
	<path clip-path="url(#SVGID_2_)" d="M331.554,339.306c-3.601-0.036-7.204-0.056-10.804,0.009
		c-3.974,11.274-8.053,22.511-12.025,33.784c3.271,0.01,6.546,0,9.816,0.005c0.631-2.328,1.456-4.596,2.085-6.924
		c3.72,0.046,7.438-0.046,11.155,0.05c0.593,2.319,1.391,4.578,2.076,6.869c3.262,0.01,6.524-0.009,9.79,0.014
		C339.628,361.84,335.586,350.574,331.554,339.306 M322.767,358.844c0.999-3.796,2.596-7.418,3.408-11.265
		c0.733,3.86,2.44,7.45,3.357,11.265C327.273,358.849,325.021,358.844,322.767,358.844"/>
	<path clip-path="url(#SVGID_2_)" d="M63.442,361.192c-0.86-2.71-3.26-5.03-6.14-5.4c1.83-0.75,3.73-1.74,4.74-3.52
		c1.68-2.99,1.37-7.12-0.99-9.66c-2.65-2.51-6.43-3.181-9.95-3.28c-4.9-0.02-9.82-0.01-14.73-0.01
		c-0.02,11.26,0.03,22.52-0.02,33.77c5.25-0.02,10.49,0.03,15.74-0.02c3.6-0.15,7.51-1.12,9.93-3.99
		C63.882,366.942,64.123,363.842,63.442,361.192 M51.473,346.992c2.43,0.59,2.5,4.47,0.29,5.4c-1.98,0.789-4.18,0.439-6.25,0.439
		c-0.01-2.01,0-4.02-0.01-6.04C47.482,346.882,49.513,346.582,51.473,346.992 M52.393,365.002c-2.16,0.96-4.6,0.38-6.89,0.54
		c0.01-2.2,0.01-4.399,0-6.59c2.31,0.16,4.76-0.43,6.95,0.51C54.603,360.522,54.583,363.992,52.393,365.002"/>
	<path clip-path="url(#SVGID_2_)" d="M104.592,339.344c3.262-0.059,6.524,0.023,9.786-0.05c3.864,5.977,7.569,12.054,11.419,18.039
		c0.648,0.99,1.218,2.044,1.519,3.193c-0.032-7.067-0.036-14.138,0.009-21.209c3.02,0.009,6.045,0.009,9.065,0
		c0.005,11.264-0.013,22.527,0.01,33.787c-3.299-0.036-6.593,0.022-9.891-0.032c-3.399-5.438-6.793-10.876-10.197-16.311
		c-0.94-1.555-2.089-3.032-2.541-4.825c-0.119,7.053,0.005,14.105-0.068,21.153c-3.039,0.011-6.082-0.004-9.12,0.011
		C104.601,361.85,104.583,350.594,104.592,339.344"/>
	<path clip-path="url(#SVGID_2_)" d="M172.08,354.362c-0.155-4.068-1.51-8.33-4.635-11.095c-3.011-2.746-7.172-3.832-11.159-3.938
		c-4.444-0.018-8.883-0.005-13.322-0.005c0,11.255-0.032,22.511,0.018,33.766c4.599-0.01,9.202,0.031,13.801-0.015
		c4.945-0.136,10.16-2.188,12.879-6.514C171.837,362.922,172.331,358.532,172.08,354.362 M159.972,363.725
		c-2.19,1.829-5.228,1.373-7.87,1.423c0.014-6.058,0.014-12.121,0-18.18c2.564,0.05,5.484-0.415,7.628,1.337
		c2.377,1.907,2.633,5.219,2.665,8.043C162.29,358.93,162.061,361.908,159.972,363.725"/>
	<path clip-path="url(#SVGID_2_)" d="M177.547,373.095c0.005-11.255-0.005-22.51,0.005-33.765c8.175,0.009,16.35-0.054,24.53,0.032
		c-0.063,2.537,0.137,5.083-0.142,7.604c-5.091-0.013-10.183,0.015-15.27-0.013c0.014,1.866,0.009,3.736,0,5.603
		c4.471,0.005,8.947-0.027,13.418,0.018c0.009,2.432-0.005,4.864,0.009,7.295c-4.471,0-8.942-0.032-13.418,0.02
		c0,1.884-0.041,3.768,0.06,5.646c5.119,0.046,10.237-0.068,15.356,0.06c-0.027,2.482-0.027,4.964,0,7.445
		C193.912,373.168,185.727,373.055,177.547,373.095"/>
	<path clip-path="url(#SVGID_2_)" d="M235.744,339.304c3.043,0.018,6.086-0.005,9.129,0.014c0.009,8.736,0,17.474,0.004,26.209
		c4.868,0.005,9.735,0,14.599,0c-0.004,2.52-0.004,5.037,0,7.556c-7.906-0.004-15.812,0.005-23.718-0.004
		C235.726,361.817,235.758,350.559,235.744,339.304"/>
	<rect x="263.426" y="339.317" clip-path="url(#SVGID_2_)" width="9.146" height="33.777"/>
	<rect x="36.497" y="65.637" clip-path="url(#SVGID_2_)" fill="#FFFFFF" width="307.007" height="246.105"/>
	<path clip-path="url(#SVGID_2_)" fill="#929292" d="M343.645,169.606v142.141H36.355v-19.721l212.7-84.73
		c-0.319,3.96-0.64,7.92-0.899,11.89c11.359-4.43,23.63-6.71,35.85-6.27c4.51,0.27,11.26,1.649,11.46,7.33
		c-0.439,7.27-8.06,10.26-13.41,13.51c-11.66,6.16-24.76,12.21-31.199,24.46c-5.87,10.63-4.461,23.12-4.66,34.79
		c25.779-0.05,51.569-0.03,77.359-0.01c-0.109-7.5,0.03-15-0.109-22.5c-15.391-0.101-30.771,0-46.13-0.061
		c1.54-8.16,8.829-13.12,15.409-17.189c9.801-5.391,20.42-10.341,27.42-19.41c5.011-7.49,5.101-17.48,2.341-25.83
		c-3.721-10.25-14.78-15.27-24.891-16.73c-2.189-0.3-4.39-0.53-6.6-0.69L343.645,169.606z"/>
	<path clip-path="url(#SVGID_2_)" fill="#D00614" d="M36.355,65.642v219.94l307.29-122.44v-97.5H36.355z M242.365,176.462l-0.08,0.8
		l-1.91,0.09l-0.06-0.29c-0.28,0.13-0.58,0.29-0.881,0.43l-0.109,1.15l-1.91,0.17l-0.07-0.3c-1.76,0.83-3.47,1.6-4.25,1.93
		c-2.029,0.81-5.79,2.74-8.2,3.9l-0.149,1.39l-1.9,0.12l-0.12-0.55c-0.029,0.01-0.05,0.01-0.069,0.01
		c-0.21,0.43-0.84,1.74-0.84,1.74s-6.131,0.74-7.15-1.87c-0.15-2.07-0.36-4.16-1.271-6.04l-0.029,0.02
		c-9.641-1.92-19.48-0.87-29.23-1.25c-4.12-0.56-7.4-3.09-11.12-4.62c-6.22-0.38-22.42-0.49-22.42-0.49l-0.95,1.35l-31.43-0.04
		l3.86,2.52c0,0,1.65,9.18,1.61,14.25l-1.7,0.2c0,0,1.66,21.521,0.42,23.45c-2.22,3.46-11.03,9.1-11.03,9.1l-0.24,1.38
		c0,0-16.92,5.601-25.1,8.42c-5.29,1.86-9.96,5.051-15.06,7.36c-5.15,2.39-9.76,6.271-12.23,11.311
		c-3.31,2.93-4.54,0.229-4.54,0.229l-0.62-5.8c0,0,0.37-0.5,0.96-1.47v-1.65l1.14-0.37c1.39-2.61,3.15-6.59,4.36-11.61l-0.49-2.17
		l1.01-0.25c0.12-0.6,0.22-1.22,0.31-1.84c1.15-2.16,3.85-2.569,3.85-2.569s3.32,0.239,5.36,1.739c0.41,0.19,1.24,0.57,1.66,0.761
		c2.79,0.52,5.92,0.42,8.07-1.7c7.81-6.62,13.84-14.91,24.16-17.62c-0.25-0.1-6.54-17.04-6.54-17.04l-1.75-0.13
		c-6.74-18.08-4.25-36.15-4.25-36.15l-2.1,0.05c0,0,0.77-19.75,6.98-36.5l5.53-2.11c0,0-10.77-1.26-16.13-1.15
		c-5.84,3.92-10.62,9.3-16.26,13.52c-2.96,1.92-3,6.06-5.95,7.98c-3.26,2.43-14.48,5.78-10.8,0.39c2.39-1.14,4.68-3.45,4.68-3.45
		s-3.23,0.93-4.45,0.98c-0.79,0.04-2.12-0.31-2.12-1.11c0-1.51,3.6-1.75,5.31-2.78c1.94-1.17,2.91-3.55,5.12-4.33
		c3.12-0.93,5.06-3.68,6.89-6.18c4.12-6.07,11.55-15.43,14.14-16.82c1.19-0.64,4.55-1.11,4.55-1.11s-0.13-0.97-0.19-1.45
		c10.94-1.49,22.18-1.63,33.1,0.2c0-5.09,1.9-10.72,6.8-13.02c1.7-0.92,3.54-1.32,5.4-1.32c5.48,0,11.17,3.49,13.97,7.77
		c1.72,2.63-0.92,6.12-0.92,6.12s-0.6,3.79,0.26,8.99c-0.26,0.78-1.24,1.41-1.97,1.72c-1.99,0.84-2.02,4.6-3.61,6.78
		c-1.49,1.01-5.09,0.23-7.31,0.26c-0.21,0.34-0.63,1.02-0.84,1.36c-0.57,1.33-0.99,2.76-1.74,4c-3.9,6.49-7.01,22.33-7.01,22.33
		l31.67,4.31l0.25,2.02c0,0,9.56,1.72,13.82,3.6c5.78,2.61,9.85,0.98,15.77,2.53l1.09-0.68c7.51,2.61,17.41,8.37,25.01,10.75
		c4.16,1.18,12.36,3.67,12.7,3.78l0.04-0.04c5.779,0.33,11.569,0.29,17.37,0.44h0.109c0.03,0,0.061,0.01,0.101,0.01h0.01
		c0.8,0.02,1.52,0.29,2.04,0.7c0.52,0.41,0.84,0.98,0.84,1.6C243.585,175.372,243.105,176.042,242.365,176.462 M259.125,168.562
		c-7.71,0-13.96-6.25-13.96-13.96s6.25-13.96,13.96-13.96s13.96,6.25,13.96,13.96S266.835,168.562,259.125,168.562"/>
</g>
</svg>
