<?xml version="1.0" encoding="UTF-8" standalone="no"?>
<!-- Created with Inkscape (http://www.inkscape.org/) -->

<svg
   xmlns:dc="http://purl.org/dc/elements/1.1/"
   xmlns:cc="http://creativecommons.org/ns#"
   xmlns:rdf="http://www.w3.org/1999/02/22-rdf-syntax-ns#"
   xmlns:svg="http://www.w3.org/2000/svg"
   xmlns="http://www.w3.org/2000/svg"
   xmlns:xlink="http://www.w3.org/1999/xlink"
   xmlns:sodipodi="http://sodipodi.sourceforge.net/DTD/sodipodi-0.dtd"
   xmlns:inkscape="http://www.inkscape.org/namespaces/inkscape"
   id="svg2"
   version="1.1"
   inkscape:version="0.48.3.1 r9886"
   width="636.59375"
   height="561.75836"
   sodipodi:docname="Bundesliga-Logo-2010.png">
  <metadata
     id="metadata8">
    <rdf:RDF>
      <cc:Work
         rdf:about="">
        <dc:format>image/svg+xml</dc:format>
        <dc:type
           rdf:resource="http://purl.org/dc/dcmitype/StillImage" />
        <dc:title></dc:title>
      </cc:Work>
    </rdf:RDF>
  </metadata>
  <defs
     id="defs6">
    <linearGradient
       id="linearGradient4197">
      <stop
         style="stop-color:#ffffff;stop-opacity:1;"
         offset="0"
         id="stop4199" />
      <stop
         style="stop-color:#ffffff;stop-opacity:0;"
         offset="1"
         id="stop4201" />
    </linearGradient>
    <linearGradient
       id="linearGradient4175">
      <stop
         style="stop-color:#bd0000;stop-opacity:1;"
         offset="0"
         id="stop4177" />
      <stop
         style="stop-color:#f9715f;stop-opacity:1;"
         offset="1"
         id="stop4179" />
    </linearGradient>
    <linearGradient
       inkscape:collect="always"
       xlink:href="#linearGradient4197"
       id="linearGradient4203"
       x1="285.20126"
       y1="49.936466"
       x2="285.20126"
       y2="69.959213"
       gradientUnits="userSpaceOnUse"
       gradientTransform="translate(3.18948,12.274397)" />
    <linearGradient
       inkscape:collect="always"
       xlink:href="#linearGradient4175-7"
       id="linearGradient4181-1"
       x1="88.314568"
       y1="142.17674"
       x2="276.6991"
       y2="299.00671"
       gradientUnits="userSpaceOnUse"
       gradientTransform="translate(643.31343,-63.602487)" />
    <linearGradient
       id="linearGradient4175-7">
      <stop
         style="stop-color:#900000;stop-opacity:1;"
         offset="0"
         id="stop4177-4" />
      <stop
         style="stop-color:#e90909;stop-opacity:1;"
         offset="1"
         id="stop4179-0" />
    </linearGradient>
    <linearGradient
       inkscape:collect="always"
       xlink:href="#linearGradient4175-7-8"
       id="linearGradient4274-8"
       gradientUnits="userSpaceOnUse"
       gradientTransform="translate(676.0391,-51.465695)"
       x1="135.5898"
       y1="395.4209"
       x2="361.4838"
       y2="395.4209" />
    <linearGradient
       id="linearGradient4175-7-8">
      <stop
         style="stop-color:#720000;stop-opacity:1;"
         offset="0"
         id="stop4177-4-2" />
      <stop
         style="stop-color:#910a00;stop-opacity:0;"
         offset="1"
         id="stop4179-0-4" />
    </linearGradient>
    <linearGradient
       inkscape:collect="always"
       xlink:href="#linearGradient4175-7-8"
       id="linearGradient4993"
       gradientUnits="userSpaceOnUse"
       gradientTransform="translate(81.41581,-39.399326)"
       x1="331.91821"
       y1="451.71225"
       x2="331.91821"
       y2="425.50018" />
    <linearGradient
       inkscape:collect="always"
       xlink:href="#linearGradient4175"
       id="linearGradient5007"
       gradientUnits="userSpaceOnUse"
       gradientTransform="translate(81.42269,-39.42029)"
       x1="88.314568"
       y1="142.17674"
       x2="276.6991"
       y2="299.00671" />
    <linearGradient
       inkscape:collect="always"
       xlink:href="#linearGradient4175-7"
       id="linearGradient5015"
       gradientUnits="userSpaceOnUse"
       gradientTransform="translate(81.40867,-39.391393)"
       x1="135.5898"
       y1="395.4209"
       x2="361.4838"
       y2="395.4209" />
    <radialGradient
       inkscape:collect="always"
       xlink:href="#linearGradient5246"
       id="radialGradient5254"
       cx="413.125"
       cy="493.48718"
       fx="413.125"
       fy="493.48718"
       r="15.125"
       gradientUnits="userSpaceOnUse" />
    <linearGradient
       id="linearGradient5246">
      <stop
         style="stop-color:#ffffff;stop-opacity:1;"
         offset="0"
         id="stop5248" />
      <stop
         style="stop-color:#ffffff;stop-opacity:0;"
         offset="1"
         id="stop5250" />
    </linearGradient>
    <linearGradient
       inkscape:collect="always"
       xlink:href="#linearGradient5264"
       id="linearGradient5270"
       x1="487.96573"
       y1="409.71228"
       x2="486.58194"
       y2="424.71228"
       gradientUnits="userSpaceOnUse"
       gradientTransform="translate(87.932258,-268.70316)" />
    <linearGradient
       id="linearGradient5264">
      <stop
         style="stop-color:#ffffff;stop-opacity:0.765625;"
         offset="0"
         id="stop5266" />
      <stop
         style="stop-color:#aaaaaa;stop-opacity:0.47486034;"
         offset="1"
         id="stop5268" />
    </linearGradient>
    <radialGradient
       gradientTransform="translate(87.682258,-268.70316)"
       inkscape:collect="always"
       xlink:href="#linearGradient5256"
       id="radialGradient5262"
       cx="475.88184"
       cy="431.51196"
       fx="475.88184"
       fy="431.51196"
       r="28.703125"
       gradientUnits="userSpaceOnUse" />
    <linearGradient
       id="linearGradient5256">
      <stop
         style="stop-color:#efefef;stop-opacity:1;"
         offset="0"
         id="stop5258" />
      <stop
         style="stop-color:#424242;stop-opacity:1;"
         offset="1"
         id="stop5260" />
    </linearGradient>
    <radialGradient
       inkscape:collect="always"
       xlink:href="#linearGradient5224"
       id="radialGradient5232"
       cx="470.80954"
       cy="426.02725"
       fx="470.80954"
       fy="426.02725"
       r="27.8125"
       gradientTransform="matrix(-1.3579048,1.3096266,-1.2541702,-1.3004037,1646.0263,355.73641)"
       gradientUnits="userSpaceOnUse" />
    <linearGradient
       id="linearGradient5224">
      <stop
         style="stop-color:#ffffff;stop-opacity:1;"
         offset="0"
         id="stop5226" />
      <stop
         style="stop-color:#000000;stop-opacity:1;"
         offset="1"
         id="stop5228" />
    </linearGradient>
    <radialGradient
       r="27.8125"
       fy="426.02725"
       fx="470.80954"
       cy="426.02725"
       cx="470.80954"
       gradientTransform="matrix(-1.3579048,1.3096266,-1.2541702,-1.3004037,1733.7086,87.033251)"
       gradientUnits="userSpaceOnUse"
       id="radialGradient5307"
       xlink:href="#linearGradient5224"
       inkscape:collect="always" />
    <radialGradient
       inkscape:collect="always"
       xlink:href="#linearGradient5246-4"
       id="radialGradient5254-1"
       cx="413.125"
       cy="493.48718"
       fx="413.125"
       fy="493.48718"
       r="15.125"
       gradientUnits="userSpaceOnUse" />
    <linearGradient
       id="linearGradient5246-4">
      <stop
         style="stop-color:#ffffff;stop-opacity:1;"
         offset="0"
         id="stop5248-9" />
      <stop
         style="stop-color:#ffffff;stop-opacity:0;"
         offset="1"
         id="stop5250-8" />
    </linearGradient>
    <linearGradient
       inkscape:collect="always"
       xlink:href="#linearGradient5264-4"
       id="linearGradient5270-2"
       x1="487.96573"
       y1="409.71228"
       x2="486.58194"
       y2="424.71228"
       gradientUnits="userSpaceOnUse"
       gradientTransform="translate(103.51812,-259.14844)" />
    <linearGradient
       id="linearGradient5264-4">
      <stop
         style="stop-color:#ffffff;stop-opacity:0.765625;"
         offset="0"
         id="stop5266-5" />
      <stop
         style="stop-color:#aaaaaa;stop-opacity:0.47486034;"
         offset="1"
         id="stop5268-2" />
    </linearGradient>
    <radialGradient
       gradientTransform="translate(103.26812,-259.14844)"
       inkscape:collect="always"
       xlink:href="#linearGradient5256-9"
       id="radialGradient5262-9"
       cx="475.88184"
       cy="431.51196"
       fx="475.88184"
       fy="431.51196"
       r="28.703125"
       gradientUnits="userSpaceOnUse" />
    <linearGradient
       id="linearGradient5256-9">
      <stop
         style="stop-color:#efefef;stop-opacity:1;"
         offset="0"
         id="stop5258-8" />
      <stop
         style="stop-color:#424242;stop-opacity:1;"
         offset="1"
         id="stop5260-3" />
    </linearGradient>
    <radialGradient
       r="27.8125"
       fy="426.02725"
       fx="470.80954"
       cy="426.02725"
       cx="470.80954"
       gradientTransform="matrix(-1.3579048,1.3096266,-1.2541702,-1.3004037,1733.7086,87.033251)"
       gradientUnits="userSpaceOnUse"
       id="radialGradient5307-8"
       xlink:href="#linearGradient5224-6"
       inkscape:collect="always" />
    <linearGradient
       id="linearGradient5224-6">
      <stop
         style="stop-color:#ffffff;stop-opacity:1;"
         offset="0"
         id="stop5226-9" />
      <stop
         style="stop-color:#000000;stop-opacity:1;"
         offset="1"
         id="stop5228-8" />
    </linearGradient>
    <radialGradient
       r="27.8125"
       fy="426.02725"
       fx="470.80954"
       cy="426.02725"
       cx="470.80954"
       gradientTransform="matrix(-1.3579048,1.3096266,-1.2541702,-1.3004037,1749.2945,96.58797)"
       gradientUnits="userSpaceOnUse"
       id="radialGradient5389"
       xlink:href="#linearGradient5224-6"
       inkscape:collect="always" />
  </defs>
  <sodipodi:namedview
     pagecolor="#ffffff"
     bordercolor="#666666"
     borderopacity="1"
     objecttolerance="10"
     gridtolerance="10"
     guidetolerance="10"
     inkscape:pageopacity="0"
     inkscape:pageshadow="2"
     inkscape:window-width="1024"
     inkscape:window-height="706"
     id="namedview4"
     showgrid="false"
     fit-margin-left="50"
     fit-margin-top="50"
     fit-margin-right="50"
     fit-margin-bottom="50"
     inkscape:zoom="0.70710678"
     inkscape:cx="101.78671"
     inkscape:cy="317.40679"
     inkscape:window-x="-8"
     inkscape:window-y="-8"
     inkscape:window-maximized="1"
     inkscape:current-layer="svg2" />
  <path
     style="fill:url(#linearGradient5007);fill-opacity:1;stroke:none"
     d="M 73.7611,50 C 60.83377,50 50.41735,60.41643 50.41735,73.34375 l 0,314.74999 c 0,12.92733 10.41642,23.34375 23.34375,23.34375 l 482.15619,0 c 12.9274,0 23.3438,-10.41642 23.3438,-23.34375 l 0,-167.1875 c -26.757,-0.0339 -48.4375,-21.7351 -48.4375,-48.5 0,-26.7649 21.6805,-48.46613 48.4375,-48.5 l 0,-50.56249 C 579.26109,60.41643 568.84469,50 555.91729,50 L 73.7611,50 z"
     id="rect3405"
     inkscape:connector-curvature="0" />
  <path
     style="fill:url(#linearGradient4203);fill-opacity:1;stroke:none"
     d="m 64.15048,67.86548 c 5.63736,2.51838 10.41981,8.06185 14.2882,16.83967 l 475.18471,0 c 1.0603,-7.34065 5.5794,-13.03423 12.3491,-17.656138 -2.8316,-3.498205 -5.9796,-5.414532 -9.4915,-5.511164 l -483.19627,0 c -3.97519,0.979393 -7.06394,3.035165 -9.13424,6.327632 z"
     id="path4195"
     inkscape:connector-curvature="0"
     sodipodi:nodetypes="ccccccc" />
  <path
     style="fill:url(#linearGradient5015);fill-opacity:1;stroke:none"
     d="m 51.26231,67.223481 c -0.0249,0.09174 -0.0386,0.189058 -0.0625,0.28125 l 0,89.187489 0.0625,-89.468739 z m 487.06248,131.093739 -0.1563,0.21875 c -158.43358,85.29221 -322.48801,91.70871 -486.96868,92.34375 -0.0313,1.2e-4 -0.0625,-1.1e-4 -0.0937,0 l -0.6875,0 0,97.25 c 0,12.9273 10.41645,23.3125 23.34375,23.3125 l 482.15618,0 c 12.9275,0 23.3438,-10.3852 23.3438,-23.3125 l 0,-167.21875 c -17.2347,-0.0218 -32.3525,-9.02991 -40.9375,-22.59375 z"
     id="rect3405-9"
     inkscape:connector-curvature="0" />
  <path
     style="fill:#ffffff;fill-opacity:1"
     d="m 92.96268,377.76058 0.38126,-7.55004 1.32804,-0.82078 1.32804,-0.82077 0,-3.79442 0,-3.79442 2.36925,-2.58476 c 1.30309,-1.42162 4.40809,-4.96228 6.90002,-7.86814 l 4.53074,-5.28338 0,-2.39519 0,-2.39519 1.75,-1.7563 c 0.9625,-0.96596 1.75,-2.64634 1.75,-3.73419 l 0,-1.97789 3,-1.76415 3,-1.76415 3.29284,-0.0731 3.29284,-0.0731 4.81087,4.5 4.81086,4.5 2.89629,-0.007 c 5.40769,-0.0131 18.84734,-3.82827 34.3963,-9.76428 8.52501,-3.25453 17.87046,-6.48418 20.76767,-7.17699 l 5.26765,-1.25967 2.60685,0.65427 2.60684,0.65428 -2.51572,-4.3003 c -1.38364,-2.36517 -4.4344,-8.1253 -6.77948,-12.8003 -2.34507,-4.675 -5.22942,-9.40798 -6.40968,-10.51774 l -2.14593,-2.01773 -4.78526,-11.40681 c -2.63189,-6.27375 -6.34834,-16.07801 -8.25878,-21.78724 l -3.4735,-10.38044 -1.05444,-8.69502 -1.05443,-8.69502 2.04115,-5.99364 2.04115,-5.99364 -2.07217,-1.93052 -2.07218,-1.93052 0.62022,-14.57584 c 0.86206,-20.25941 4.09631,-40.48757 8.746,-54.7004 l 2.00362,-6.12455 6.71022,-3.13553 6.71021,-3.13553 -3.39031,0.51315 c -1.86467,0.28223 -9.87567,1.02799 -17.80224,1.65724 l -14.41192,1.14408 -14.30386,14.10286 -14.30386,14.10285 -1.16287,4.7681 -1.16286,4.7681 -3.66283,4.05432 c -2.01456,2.22987 -5.3631,4.92173 -7.44121,5.9819 l -3.77837,1.92758 -2.95805,0 c -3.792,0 -6.13307,-0.90769 -6.079,-2.35699 0.0234,-0.62866 1.8043,-3.14965 3.95746,-5.60222 2.15315,-2.45257 3.76568,-4.60836 3.5834,-4.79064 -0.18229,-0.18228 -2.02324,0.66678 -4.09102,1.8868 l -3.75961,2.21821 -1.43161,-1.92758 -1.4316,-1.92758 2.7635,-2 c 3.6973,-2.6758 6.10558,-5.2918 8.74568,-9.5 1.20768,-1.925 3.65239,-4.4 5.43268,-5.5 l 3.2369,-2 8.4393,-14 c 4.64162,-7.7 10.36823,-16.925 12.7258,-20.5 l 4.28649,-6.5 4.11321,-1.30208 4.11321,-1.30206 1.01502,-2.22771 1.01501,-2.22771 16.87177,-3.73521 16.87179,-3.7352 9.5,-0.90829 9.5,-0.90829 4.5,0.87812 c 6.44375,1.25741 16.82379,3.8137 21.5967,5.31863 l 4.09671,1.2917 2.26095,-4.26193 c 2.85356,-5.37901 8.41083,-10.99429 13.42324,-13.56337 l 3.87761,-1.98744 5.34645,-0.5518 5.34645,-0.5518 4.536,1.27 4.53599,1.27 4.3506,3.82955 4.3506,3.82955 2.1797,5.06685 2.1797,5.06686 0.59997,6.42495 0.59997,6.42494 -1.28117,3.09303 -1.28118,3.09303 -2.60914,1.36752 c -3.05459,1.60099 -8.03005,6.63008 -11.30005,11.42186 l -2.3091,3.3837 -3.85188,0.32763 -3.85187,0.32764 -3.45529,2.03866 c -1.9004,1.12127 -4.52392,2.03867 -5.83003,2.03867 l -2.37474,0 -2.24138,-3.14772 -2.24137,-3.14772 -0.75494,2.04079 c -1.23391,3.33557 -12.8985,49.93582 -12.8985,51.52973 l 0,1.4665 7.25,0.70679 c 3.9875,0.38873 14.63681,2.03749 23.66513,3.66391 l 16.41513,2.95712 1.09381,1.49587 1.09381,1.49587 9.77999,1.99792 c 5.379,1.09886 14.14997,3.61945 19.49106,5.60131 l 9.71107,3.60338 11.05155,0.8262 11.05154,0.82621 8.6336,3.04728 c 4.74847,1.676 16.20028,6.25475 25.44845,10.17499 19.08893,8.09168 32.43141,13.03125 40.01741,14.81498 l 5.2026,1.22331 14.7974,-1.67239 c 8.1386,-0.91981 16.9964,-2.08457 19.684,-2.58836 6.9685,-1.30624 8.3646,-1.16489 10.6029,1.07348 l 1.9895,1.98945 -2.0904,4.01055 -2.0904,4.01055 -1.9927,0 -1.9926,0 -0.5259,2.01094 -0.5259,2.01094 -2.6305,0.65534 c -2.8983,0.72207 -19.7374,12.9198 -19.4518,14.0903 0.098,0.40286 -0.5064,1.48963 -1.3439,2.41504 l -1.5227,1.68256 -1.3922,-0.53421 -1.3921,-0.53422 -0.9363,2.46252 -0.9362,2.46253 -4.9502,0.65666 c -2.7226,0.36117 -5.636,0.3935 -6.4742,0.0719 -0.8382,-0.32165 -2.9406,-3.24259 -4.672,-6.49097 l -3.1479,-5.90615 -4.1688,-1.12253 c -8.33733,-2.24501 -23.44894,-4.77858 -32.24225,-5.40564 -29.69137,-2.11732 -35.99863,-3.28828 -46.5,-8.63284 l -7.5,-3.81704 -22,-0.83943 -22,-0.83944 -1.11024,1.3019 -1.11025,1.30184 -22.63975,0 -22.63976,0 0,2.20742 c 0,1.21409 0.72398,7.82181 1.60885,14.68383 l 1.60884,12.4764 -1.7,1.24307 -1.69999,1.24307 2.5362,15.3231 c 3.68511,22.26455 3.72934,22.62322 3.80117,30.82311 l 0.0657,7.5 -1.179,2.99557 c -0.64845,1.64756 -2.33174,4.50689 -3.74065,6.35407 l -2.56166,3.3585 -6.11973,2.89514 c -3.36585,1.59233 -7.09473,2.8955 -8.2864,2.89593 -1.19166,4.3e-4 -2.32079,0.46317 -2.50917,1.0283 l -0.3425,1.02751 -11.99083,0.96435 c -6.59496,0.53039 -25.22724,1.63302 -41.40508,2.45031 l -29.41425,1.48596 -4.08575,2.73804 c -8.51221,5.7044 -16.22464,12.32582 -20.06604,17.22747 l -3.98028,5.07885 -4.87903,0 -4.87902,0 0.38126,-7.55005 z"
     id="path4328"
     inkscape:connector-curvature="0" />
  <path
     style="fill:url(#linearGradient4993);fill-opacity:1;stroke:none"
     d="m 50.42644,386.50307 0,1.625 c 0,12.9273 10.41642,23.3125 23.34375,23.3125 l 482.1562,0 c 12.9273,0 23.3437,-10.3852 23.3437,-23.3125 l 0,-1.625 -528.84365,0 z"
     id="rect3405-9-5"
     inkscape:connector-curvature="0" />
  <path
     style="fill:#000000"
     d="m 121.50001,511.17195 c -7.62101,-1.99294 -12.78058,-6.68999 -15.50939,-14.1191 -0.83574,-2.27527 -1.44748,-11.11083 -1.74819,-25.25 l -0.46259,-21.75 5.11009,0 5.11008,0 0,20.53212 c 0,22.40001 0.56608,25.4082 5.51368,29.29998 3.29745,2.59378 11.06749,2.95296 15.40113,0.71195 5.62671,-2.90968 6.53593,-6.82642 6.91631,-29.79405 l 0.34365,-20.75 4.49578,0 4.49579,0 -0.35714,22.25 c -0.38176,23.78336 -1.00627,27.11547 -6.10693,32.58367 -4.87875,5.2303 -15.86072,8.20529 -23.20227,6.28543 z m 218.29233,-0.47 c -4.37526,-1.22533 -12.14292,-5.78931 -13.44854,-7.90185 -0.31275,-0.50604 0.91796,-2.45383 2.7349,-4.32844 3.25645,-3.35981 3.33286,-3.38161 5.36242,-1.53056 5.49754,5.01401 14.95275,6.8481 21.4435,4.15955 2.72004,-1.12668 5.11539,-4.61993 5.11539,-7.45999 0,-3.45517 -4.25621,-6.50835 -13.26045,-9.51234 -11.14279,-3.71745 -15.10111,-6.01108 -17.80383,-10.31633 -2.73125,-4.3507 -2.2983,-13.03684 0.87172,-17.48871 6.5022,-9.13151 24.23276,-9.78067 35.19256,-1.28848 l 2.5,1.93712 -3.25866,3.27989 c -2.79112,2.80931 -3.50849,3.09918 -5,2.02036 -6.87267,-4.97106 -17.87885,-5.62014 -21.40747,-1.26249 -4.47878,5.53107 -0.86649,9.53477 12.67206,14.04515 7.35274,2.44956 10.91008,4.24662 13.86784,7.00558 3.61974,3.37647 4.01328,4.24172 4.36709,9.60166 0.7752,11.744 -5.91925,18.64179 -19.24086,19.82526 -3.58803,0.31876 -7.89246,0.003 -10.70767,-0.78538 z m 140.01715,0.008 c -13.9943,-3.93174 -20.627,-15.35759 -19.6121,-33.78513 0.7384,-13.406 6.5362,-22.31352 17.1659,-26.37305 6.6439,-2.53733 20.8143,-1.7884 25.925,1.37018 3.5239,2.17787 7.2473,6.41489 7.9017,8.99159 0.1799,0.70859 -2.8187,2.45168 -7.1505,4.15647 l -7.4603,2.93608 -2.2493,-2.11304 c -2.5987,-2.44141 -9.353,-2.896 -11.8792,-0.79951 -3.3188,2.75441 -4.7934,7.35174 -4.7979,14.9592 -0.01,12.19174 3.4569,17 12.2481,17 4.6427,1e-5 9.099,-3.64977 9.099,-7.45224 0,-2.30571 -0.38,-2.54775 -4,-2.54775 l -4,0 0,-5.5 0,-5.5 12,0 12,0 0,6.8185 c 0,9.81595 -2.2725,16.50794 -7.3162,21.5442 -6.2319,6.22276 -18.3719,8.96419 -27.8742,6.29451 z M 50,480.65753 l 0,-30.60478 15.54966,0 c 16.72713,0 18.77164,0.47825 23.45034,5.48555 2.17386,2.32653 2.5,3.58897 2.5,9.67704 0,6.53562 -0.20201,7.18197 -3.0362,9.71431 l -3.0362,2.71284 3.73535,2.65942 c 2.6851,1.91169 4.05519,3.84723 4.87291,6.88403 2.34941,8.72502 -0.98236,17.22452 -8.24663,21.03758 -3.79826,1.99373 -6.09205,2.2965 -20.03923,2.64511 L 50,511.26231 50,480.65753 z m 33.09043,18.53444 c 2.96943,-3.67108 2.61914,-11.12326 -0.66817,-14.21491 -2.39589,-2.25328 -3.33063,-2.42431 -13.25,-2.42431 l -10.67226,0 -0.28726,9.83697 -0.28726,9.83697 11.62769,-0.33697 c 10.8089,-0.31324 11.76216,-0.50321 13.53726,-2.69775 z m -4.16195,-26.60224 c 4.81991,-2.49247 5.55685,-8.14256 1.58065,-12.11876 -2.36188,-2.36188 -2.99623,-2.47604 -12.25,-2.20454 l -9.75913,0.28632 -0.30147,6.39467 c -0.16581,3.51707 -0.0674,7.00457 0.21861,7.75 0.74697,1.94656 16.70085,1.8628 20.51134,-0.10769 z m 85.07153,8.02052 0,-30.5575 4.75,0.0112 4.75,0.0112 13.75,22.15102 13.75,22.15101 0,-22.16225 0,-22.16225 4.5,0 4.5,0 0,30.5 0,30.5 -4.25,-0.001 -4.25,-10e-4 -14,-21.99665 -14,-21.99665 -0.5,21.74798 -0.5,21.74792 -4.25,0.3075 -4.25,0.3075 0,-30.5575 z m 59,-0.1534 0,-30.59589 13.75,0.34874 c 12.98556,0.32935 14.04212,0.51044 19.00433,3.25718 9.59694,5.31221 13.51379,13.01789 13.51379,26.58587 0,21.93879 -10.7616,31 -36.81734,31 l -9.45078,0 0,-30.5959 z m 28.44323,18.18204 c 5.41817,-3.17526 7.83376,-8.01001 8.36623,-16.74483 0.4658,-7.64115 -0.86657,-12.56729 -4.5987,-17.00269 -3.60155,-4.2802 -7.9199,-5.83862 -16.17864,-5.83862 l -7.03212,0 0,20.83333 c 0,11.45834 0.3375,21.18303 0.75,21.61044 1.59533,1.65297 14.31421,-0.29136 18.69323,-2.85763 z m 27.55677,-18.08614 0,-30.5 19.5,0 19.5,0 0,4.5 0,4.5 -15,0 -15,0 0,7 0,7 8.5,0 8.5,0 0,5 0,5 -8.5,0 -8.5,0 0,9.5 0,9.5 15.5,0 15.5,0 0,4.5 0,4.5 -20,0 -20,0 0,-30.5 z m 103,0 0,-30.5 8.5,0 8.5,0 0,23 0,23 11.49988,0 11.5,0 0,7.5 0,7.5 -19.99993,0 -19.99995,0 0,-30.5 z m 49.99988,0 0,-30.5 8.5,0 8.5,0 0,30.5 0,30.5 -8.5,0 -8.5,0 0,-30.5 z m 86,29.12173 c 0,-0.75805 4.3254,-13.24555 9.612,-27.75 5.2865,-14.50445 10.0556,-27.60923 10.5978,-29.12173 0.9731,-2.71447 1.0986,-2.75 9.7085,-2.75 l 8.7227,0 10.6795,29.39965 c 5.8737,16.1698 10.6795,29.8948 10.6795,30.5 0,0.71763 -3.08,1.10035 -8.8553,1.10035 l -8.8554,0 -1.4013,-5.25 -1.4014,-5.25 -9.6637,-0.28525 -9.6637,-0.28525 -1.2387,5.53525 -1.2388,5.53525 -8.8408,0 c -6.8449,0 -8.8409,-0.31118 -8.8409,-1.37827 z m 33.383,-30.82229 c -1.3112,-4.5103 -2.7793,-8.59572 -3.2622,-9.07869 -0.7507,-0.7507 -1.974,2.55488 -5.7467,15.52925 -0.4442,1.52763 0.2473,1.75 5.4421,1.75 l 5.951,0 -2.3842,-8.20056 z"
     id="path4952"
     inkscape:connector-curvature="0" />
  <path
     inkscape:connector-curvature="0"
     style="fill:url(#radialGradient5389);fill-opacity:1;stroke:none"
     d="m 579.04938,145.07031 c -12.48283,0 -22.59375,7.64807 -22.59375,17.0625 0,9.41443 10.11092,17.03125 22.59375,17.03125 12.48283,0 22.59375,-7.61682 22.59375,-17.03125 0,-9.41443 -10.11092,-17.0625 -22.59375,-17.0625 z m 24.15625,12.5625 c 1.67972,2.98918 2.625,6.33478 2.625,9.875 0,12.58744 -11.91422,22.78125 -26.59375,22.78125 -14.67953,0 -26.5625,-10.19381 -26.5625,-22.78125 0,-2.15844 0.34617,-4.2399 1,-6.21875 -1.32177,3.03565 -2.0625,6.36282 -2.0625,9.84375 0,14.39361 12.44955,26.0625 27.8125,26.0625 15.36295,0 27.8125,-11.66889 27.8125,-26.0625 0,-4.9478 -1.47571,-9.55951 -4.03125,-13.5 z"
     id="path5068-1" />
  <path
     style="fill:url(#radialGradient5262-9);fill-opacity:1;stroke:none"
     d="m 579.1656,143.66038 c -15.85113,0 -28.71875,12.86762 -28.71875,28.71875 0,15.85113 12.86762,28.6875 28.71875,28.6875 15.85113,0 28.6875,-12.83637 28.6875,-28.6875 0,-15.85113 -12.83637,-28.71875 -28.6875,-28.71875 z m -0.15625,1.4375 c 0.12631,0 0.24918,-0.002 0.375,0 12.30884,0.15261 22.25,7.74333 22.25,17.0625 0,9.41443 -10.14217,17.03125 -22.625,17.03125 -12.48283,0 -22.59375,-7.61682 -22.59375,-17.03125 0,-5.00019 2.86139,-9.50256 7.40625,-12.625 0.0837,-0.053 0.16566,-0.1041 0.25,-0.15625 3.64322,-2.25281 7.89906,-3.72142 12.46875,-4.15625 0.32204,-0.0306 0.64355,-0.0422 0.96875,-0.0625 0.14693,-0.009 0.28995,-0.0242 0.4375,-0.0312 0.35421,-0.0125 0.7042,-0.0312 1.0625,-0.0312 z m 24.3125,12.84375 c 2.44771,3.8801 3.875,8.38442 3.875,13.21875 0,13.15486 -10.38834,24.03739 -23.90625,25.8125 -0.0821,0.0108 -0.16769,0.0211 -0.25,0.0312 -2.10985,0.16181 -4.65736,0.1919 -6.8125,0.0625 -12.83466,-1.35716 -23.01043,-10.91506 -24.46875,-22.9375 -0.15195,-1.95618 -0.15364,-4.20158 0,-6.125 0.30436,-2.34873 0.953,-4.60689 1.875,-6.71875 0.007,3e-5 0.0256,-0.006 0.0312,0 -0.66144,1.9875 -1.03125,4.08016 -1.03125,6.25 0,12.58744 11.91422,22.78125 26.59375,22.78125 6.42229,0 12.31541,-1.93837 16.90625,-5.1875 -0.6197,0.44282 -1.2422,0.85791 -1.90625,1.25 -0.73906,0.43638 -1.34375,0.8687 -1.34375,0.96875 0,0.57238 -1.55786,4.76418 -2.84375,7.65625 -0.0382,0.0859 -0.01,0.15625 0.0625,0.15625 0.22834,0 3.92656,-1.92966 4.90625,-2.5625 4.79398,-3.09672 8.31377,-7.39692 10.40625,-12.6875 0.96769,-2.44667 1.35534,-4.2726 1.59375,-7.5625 0.13335,-1.84015 0.14332,-2.3512 -0.0312,-3.8125 -0.26474,-2.21602 -0.79971,-4.36577 -1.59375,-6.375 -0.35447,-0.89697 -0.68875,-1.62375 -0.71875,-1.59375 -0.03,0.03 0.079,0.49 0.25,1.03125 0.20715,0.65575 0.36432,1.35478 0.5,2.03125 0.6169,3.07565 0.522,6.31986 -0.34375,9.40625 -0.7171,2.55646 -2.04295,5.01859 -3.8125,7.25 -0.47913,0.60418 -0.98697,1.18444 -1.53125,1.75 -0.54447,0.56576 -1.1142,1.10421 -1.71875,1.625 0.60071,-0.51524 1.1776,-1.0625 1.71875,-1.625 0.54115,-0.5625 1.0541,-1.14404 1.53125,-1.75 2.86292,-3.63574 4.53125,-8.02971 4.53125,-12.75 0,-1.32758 -0.12002,-2.64179 -0.375,-3.90625 -0.40348,-2.00085 -1.12571,-3.90109 -2.09375,-5.6875 z m -5.34375,25.75 c -0.57637,0.49479 -1.18632,0.98912 -1.8125,1.4375 0.63621,-0.45119 1.22823,-0.93815 1.8125,-1.4375 z"
     id="path4979-7"
     inkscape:connector-curvature="0" />
  <path
     style="fill:url(#linearGradient5270-2);fill-opacity:1;stroke:none"
     d="m 595.04231,177.47584 c -0.7843,-2.89579 -1.88165,-6.44425 -2.69003,-8.69865 -3.48699,-9.7245 -7.19105,-14.99132 -13.21914,-18.79641 -1.07105,-0.67608 -5.51943,-2.9135 -7.67071,-3.85817 -0.53814,-0.23631 -0.97851,-0.45942 -0.97858,-0.4958 -2e-4,-0.0951 1.69666,-0.70502 2.58838,-0.93044 5.0133,-1.26735 13.7528,0.32631 20.13991,3.67256 7.19277,3.76833 11.12198,9.23882 11.13783,15.50677 0.005,1.88171 -0.15945,3.18036 -0.60673,4.79822 -0.8954,3.23875 -2.29721,6.02065 -4.8805,9.68538 -0.98148,1.25642 -1.77934,1.68709 -2.42051,1.43869 -0.59398,-0.23012 -1.05348,-1.04304 -1.39992,-2.32215 z"
     id="path5118-2"
     inkscape:connector-curvature="0"
     sodipodi:nodetypes="cssscsscscsc" />
  <path
     sodipodi:type="arc"
     style="fill:url(#radialGradient5254-1);fill-opacity:1;stroke:none"
     id="path5244"
     sodipodi:cx="413.125"
     sodipodi:cy="493.48718"
     sodipodi:rx="15.125"
     sodipodi:ry="15.125"
     d="m 428.25,493.48718 a 15.125,15.125 0 1 1 -30.25,0 15.125,15.125 0 1 1 30.25,0 z"
     transform="matrix(0.82644628,0,0,0.82644628,233.84251,-248.3769)" />
  <path
     style="fill:#ffffff;fill-opacity:1;stroke:#ffffff;stroke-width:1px;stroke-linecap:butt;stroke-linejoin:miter;stroke-opacity:1"
     d="m 565.45095,163.07618 20.25,-5.25 c -3.20172,-3.91379 -7.05033,-6.74946 -11.25,-9 -8.84658,1.81388 -12.78363,6.20526 -15,11.5 1.6147,0.48321 3.09799,0.81857 6,2.75 z"
     id="path5272"
     inkscape:connector-curvature="0"
     sodipodi:nodetypes="ccccc" />
</svg>
