<?xml version="1.0" encoding="UTF-8" standalone="no"?>
<svg
   xmlns:dc="http://purl.org/dc/elements/1.1/"
   xmlns:cc="http://creativecommons.org/ns#"
   xmlns:rdf="http://www.w3.org/1999/02/22-rdf-syntax-ns#"
   xmlns:svg="http://www.w3.org/2000/svg"
   xmlns="http://www.w3.org/2000/svg"
   xmlns:sodipodi="http://sodipodi.sourceforge.net/DTD/sodipodi-0.dtd"
   xmlns:inkscape="http://www.inkscape.org/namespaces/inkscape"
   width="62.358986"
   height="92.20594"
   viewBox="0 0 62.358986 92.20594"
   version="1.1"
   id="svg4136"
   inkscape:version="0.91 r13725"
   sodipodi:docname="efllogo1.svg">
  <metadata
     id="metadata4154">
    <rdf:RDF>
      <cc:Work
         rdf:about="">
        <dc:format>image/svg+xml</dc:format>
        <dc:type
           rdf:resource="http://purl.org/dc/dcmitype/StillImage" />
        <dc:title>Page 1</dc:title>
      </cc:Work>
    </rdf:RDF>
  </metadata>
  <sodipodi:namedview
     pagecolor="#ffffff"
     bordercolor="#666666"
     borderopacity="1"
     objecttolerance="10"
     gridtolerance="10"
     guidetolerance="10"
     inkscape:pageopacity="0"
     inkscape:pageshadow="2"
     inkscape:window-width="1920"
     inkscape:window-height="1017"
     id="namedview4152"
     showgrid="false"
     fit-margin-top="0"
     fit-margin-left="0"
     fit-margin-right="0"
     fit-margin-bottom="0"
     inkscape:zoom="6.3283582"
     inkscape:cx="31.458356"
     inkscape:cy="39.09721"
     inkscape:window-x="-8"
     inkscape:window-y="-8"
     inkscape:window-maximized="1"
     inkscape:current-layer="Page-1" />
  <!-- Generator: Sketch 3.6.1 (26313) - http://www.bohemiancoding.com/sketch -->
  <title
     id="title4138">Page 1</title>
  <desc
     id="desc4140">Created with Sketch.</desc>
  <defs
     id="defs4142" />
  <g
     id="Page-1"
     style="fill:none;fill-rule:evenodd;stroke:none;stroke-width:1"
     transform="translate(-14.541644,-13.89127)">
    <g
       transform="translate(0,-86)"
       id="g4146">
      <path
         style="fill:#cc0835"
         inkscape:connector-curvature="0"
         id="Fill-5"
         d="m 70.769106,192.09721 0,-5.40737 -7.267227,0 0,-18.03846 -5.837748,0 0,19.82702 c 0,1.9993 1.621983,3.61881 3.623563,3.61881 l 9.481412,0 z M 21.67435,188.4784 c 0,1.9993 1.622756,3.61881 3.625109,3.61881 l 10.503462,0 0,-5.40737 -8.29005,0 0,-3.64274 7.620537,0 0,-5.45831 -7.620537,0 0,-3.49916 8.325613,0 0,-5.43825 -14.164134,0 0,19.82702 z m 21.752201,3.61881 c -2.000807,0 -3.62279,-1.61951 -3.62279,-3.61881 l 0,-19.82702 14.235261,0 0,5.43825 -8.395966,0 0,3.50147 7.62131,0 0,5.456 -7.62131,0 -0.0023,9.05011 -2.214185,0 z" />
      <path
         style="fill:#26358c"
         inkscape:connector-curvature="0"
         id="Fill-7"
         d="m 24.905173,139.67653 c -1.478958,0 -2.676504,1.19649 -2.676504,2.67011 0,1.47593 1.198319,2.67165 2.675731,2.67242 1.477412,0 2.675731,-1.19649 2.675731,-2.67165 0,-1.47439 -1.198319,-2.67088 -2.674958,-2.67088 m -6.444638,-2.08344 c -1.412471,0 -2.558219,1.14323 -2.558219,2.55355 0,1.41031 1.145748,2.55354 2.558219,2.55354 1.411697,0 2.557445,-1.14323 2.557445,-2.55354 0,-1.41032 -1.145748,-2.55355 -2.557445,-2.55355 m -0.858152,-7.10793 c -1.690017,0 -3.060739,1.36786 -3.060739,3.0553 0,1.68744 1.370722,3.0553 3.060739,3.0553 1.690017,0 3.06074,-1.36786 3.06074,-3.0553 0,-1.68666 -1.370723,-3.0553 -3.06074,-3.0553 m 0.589109,-7.69691 c -1.81526,0 -3.288033,1.46976 -3.288033,3.28225 0,1.81249 1.472773,3.28224 3.288033,3.28224 1.816034,0 3.288034,-1.46975 3.287261,-3.28224 7.73e-4,-1.81249 -1.472773,-3.28225 -3.287261,-3.28225 m 2.797883,-7.69922 c -1.952874,0 -3.534656,1.57936 -3.534656,3.52849 0,1.94835 1.581782,3.52849 3.534656,3.52849 1.951327,0 3.533109,-1.58014 3.533109,-3.52849 0,-1.94913 -1.581782,-3.52849 -3.533109,-3.52849 m 8.874521,-0.53958 c -2.250521,0 -4.075059,1.82175 -4.075059,4.06961 0,2.24709 1.824538,4.06884 4.075832,4.06884 2.250521,0 4.075059,-1.82175 4.075059,-4.06884 0,-2.24786 -1.824538,-4.06961 -4.075832,-4.06961 m -5.090152,17.55291 c -1.785882,0 -3.233142,1.44659 -3.233142,3.22975 0,1.78239 1.44726,3.22821 3.233142,3.22821 1.786656,0 3.233916,-1.44582 3.233916,-3.22821 0,-1.78316 -1.448033,-3.22975 -3.233916,-3.22975 m 15.834824,28.06659 c -0.493244,0 -0.892168,0.39909 -0.892168,0.89081 0,0.49172 0.399698,0.89081 0.891395,0.89081 0.494017,0 0.892941,-0.39909 0.892941,-0.89081 0,-0.49326 -0.398924,-0.89081 -0.892168,-0.89081 m -3.070017,-1.85726 c -0.739092,0 -1.336706,0.59747 -1.336706,1.3339 0,0.73642 0.597614,1.33389 1.336706,1.33389 0.736,0 1.334387,-0.5967 1.334387,-1.33389 0,-0.73643 -0.598387,-1.3339 -1.334387,-1.3339 m -2.229647,-3.95151 c -0.948605,0 -1.717848,0.76885 -1.717848,1.71523 0,0.94716 0.769243,1.71446 1.717848,1.71446 0.948605,0 1.717076,-0.7673 1.717076,-1.71446 0,-0.94638 -0.768471,-1.71523 -1.717076,-1.71523 m -1.333613,3.66667 c -0.545042,0 -0.986488,0.43845 -0.986488,0.98189 0,0.54421 0.441446,0.98421 0.984942,0.98421 0.545815,0 0.985714,-0.44 0.985714,-0.98421 0,-0.54266 -0.439899,-0.98189 -0.984168,-0.98189 m -5.835429,-3.41348 c -0.589109,0 -1.066891,0.47706 -1.066118,1.06372 0,0.58821 0.477009,1.0645 1.066118,1.0645 0.588336,0 1.064572,-0.47629 1.064572,-1.0645 0,-0.58666 -0.476236,-1.06372 -1.064572,-1.06372 m 3.206084,0.52029 c -0.788571,0 -1.426386,0.63761 -1.426386,1.42421 0,0.78582 0.637815,1.42421 1.426386,1.42421 0.787025,0 1.425614,-0.63762 1.425614,-1.42421 0,-0.7866 -0.638589,-1.42421 -1.425614,-1.42421 m -2.753042,-4.31664 c -0.858924,0 -1.556269,0.69551 -1.556269,1.55467 0,0.85839 0.697345,1.55544 1.557042,1.55544 0.859698,0 1.556269,-0.69705 1.556269,-1.55544 0,-0.85916 -0.696571,-1.55467 -1.557042,-1.55467 m -3.729479,0.16211 c -0.800168,0 -1.44958,0.64842 -1.44958,1.4466 0.0015,0.79894 0.649412,1.44659 1.44958,1.44659 0.799395,0 1.448807,-0.64765 1.447261,-1.44659 0,-0.79818 -0.647866,-1.4466 -1.447261,-1.4466 m -2.544302,-3.17649 c -0.881345,0 -1.595698,0.71403 -1.595698,1.59403 0,0.88 0.714353,1.5925 1.596471,1.5925 0.881344,0 1.595697,-0.7125 1.595697,-1.5925 0,-0.88 -0.714353,-1.59403 -1.59647,-1.59403 m -2.125278,-4.40772 c -1.116369,0 -2.020907,0.90393 -2.020907,2.0186 0,1.11312 0.904538,2.01628 2.020907,2.01628 1.115597,0 2.020135,-0.90316 2.020135,-2.01628 0,-1.11467 -0.904538,-2.0186 -2.020135,-2.0186 m 5.976908,2.45937 c -1.134924,0 -2.054151,0.91705 -2.054151,2.05101 0,1.13243 0.919227,2.05102 2.054151,2.05102 1.135697,0 2.054151,-0.91859 2.054151,-2.05102 0,-1.13396 -0.918454,-2.05101 -2.054151,-2.05101 m 6.825008,3.81101 c -1.184403,0 -2.144605,0.95797 -2.144605,2.13979 7.73e-4,1.1826 0.960202,2.14134 2.144605,2.14134 1.183631,0 2.143832,-0.95874 2.142286,-2.14134 0,-1.18182 -0.958655,-2.13979 -2.142286,-2.13979 m -1.681512,-5.97859 c -1.497513,0 -2.710521,1.2127 -2.710521,2.7087 0,1.49523 1.213008,2.70716 2.710521,2.70716 1.498285,0 2.712067,-1.21193 2.712067,-2.70716 0,-1.496 -1.213782,-2.7087 -2.712067,-2.7087 m -0.112874,-7.36035 c -1.814488,0 -3.284941,1.46821 -3.284941,3.27916 0,1.81249 1.470453,3.2807 3.284941,3.2807 1.813714,0 3.284941,-1.46821 3.284941,-3.2807 0,-1.81095 -1.471227,-3.27916 -3.284941,-3.27916 M 26.36635,123.2985 c -2.137648,0 -3.871731,1.72989 -3.871731,3.86582 0,2.13439 1.734083,3.86428 3.871731,3.86505 2.137647,-7.7e-4 3.870958,-1.73143 3.871731,-3.86505 -7.73e-4,-2.13593 -1.734858,-3.86659 -3.871731,-3.86582 m 7.530857,4.65088 c -2.187126,0 -3.960639,1.77157 -3.960639,3.95691 0,2.18379 1.773513,3.95537 3.960639,3.95537 2.188672,0 3.962185,-1.77158 3.962185,-3.95537 0,-2.18534 -1.773513,-3.95691 -3.962185,-3.95691 m 4.527327,-8.96597 c -2.451529,0 -4.436874,1.98386 -4.436874,4.43011 0,2.44701 1.985345,4.43087 4.436874,4.43087 2.449984,0 4.437647,-1.98386 4.437647,-4.43087 0,-2.44625 -1.987663,-4.43011 -4.437647,-4.43011 m 7.986219,-14.11782 c -1.478185,0 -2.675731,1.19572 -2.675731,2.67087 0,1.47439 1.197546,2.67165 2.675731,2.67165 1.476639,0 2.674958,-1.19726 2.675731,-2.67165 -7.73e-4,-1.47515 -1.199092,-2.67087 -2.675731,-2.67087 m 5.130353,-4.35446 c -1.411698,0 -2.556672,1.144 -2.556672,2.55354 0,1.41032 1.144974,2.55355 2.558218,2.55355 1.410924,0 2.555899,-1.14323 2.555899,-2.55355 0,-1.40954 -1.144975,-2.55354 -2.557445,-2.55354 m 6.158588,2.06028 c -1.690017,0 -3.059966,1.36709 -3.059966,3.05453 0,1.68743 1.369949,3.0553 3.059966,3.0553 1.69079,0 3.061513,-1.36787 3.06074,-3.0553 7.73e-4,-1.68744 -1.36995,-3.05453 -3.06074,-3.05453 m 6.184101,4.01712 c -1.815261,-7.7e-4 -3.286487,1.46976 -3.286487,3.28148 0,1.81249 1.471226,3.28302 3.286487,3.28302 1.816034,0 3.288807,-1.47053 3.288807,-3.28302 0,-1.81172 -1.472773,-3.28148 -3.288807,-3.28148 m 5.065412,5.89909 c -1.950555,0 -3.533109,1.57937 -3.533109,3.52849 0,1.94835 1.582554,3.52849 3.533109,3.52849 1.952874,0 3.534655,-1.58014 3.534655,-3.52849 0,-1.94912 -1.581781,-3.52849 -3.534655,-3.52849 m -4.437647,7.13263 c -2.251294,0 -4.075059,1.82253 -4.075059,4.06962 0,2.24708 1.823765,4.06961 4.075059,4.06961 2.249748,0 4.074285,-1.82253 4.074285,-4.06961 0,-2.24709 -1.824537,-4.06962 -4.074285,-4.06962 M 52.560064,107.70397 c -1.785883,0 -3.23237,1.44428 -3.23237,3.22744 0,1.78393 1.446487,3.22898 3.233143,3.22898 1.785882,0 3.23237,-1.44505 3.23237,-3.22898 0,-1.78316 -1.446488,-3.22821 -3.233143,-3.22744 M 22.3284,110.86966 c -0.492471,0 -0.892168,0.39831 -0.892168,0.89003 0,0.49249 0.399697,0.89081 0.892168,0.89081 0.493244,0 0.892168,-0.39832 0.892168,-0.89081 0,-0.49172 -0.398924,-0.89003 -0.892168,-0.89003 m 2.762319,-2.39221 c -0.739092,0 -1.335932,0.59747 -1.335932,1.33389 0,0.73642 0.597613,1.3339 1.335932,1.3339 0.737546,0 1.33516,-0.59748 1.33516,-1.3339 0,-0.73642 -0.597614,-1.33389 -1.33516,-1.33389 m 4.211126,-0.52337 c -0.949378,0 -1.717848,0.76807 -1.717848,1.71522 0,0.94716 0.76847,1.71446 1.717848,1.71446 0.947832,0 1.716303,-0.7673 1.716303,-1.71446 0,-0.94715 -0.768471,-1.71522 -1.716303,-1.71522 m -1.878655,-1.88892 c -0.543496,0 -0.984168,0.44001 -0.984168,0.98344 0,0.54267 0.440672,0.98344 0.984168,0.98344 0.545042,0 0.984941,-0.44077 0.984941,-0.98344 0,-0.54343 -0.439899,-0.98344 -0.984941,-0.98344 m 5.80837,-3.46056 c -0.58911,0 -1.066118,0.47628 -1.066118,1.0645 0,0.58743 0.477008,1.06371 1.066118,1.06371 0.588336,0 1.064571,-0.47628 1.064571,-1.06371 0,-0.58822 -0.476235,-1.0645 -1.064571,-1.0645 m -2.366488,1.97228 c -0.788571,0 -1.425613,0.63762 -1.425613,1.42422 0,0.78582 0.637042,1.4242 1.425613,1.4242 0.787799,0 1.425614,-0.63761 1.425614,-1.4242 0,-0.7866 -0.637815,-1.42422 -1.425614,-1.42422 m 5.005883,-0.41684 c -0.860471,0 -1.557816,0.69551 -1.557816,1.55467 0,0.85838 0.697345,1.55389 1.557816,1.55389 0.859697,0 1.556268,-0.69551 1.556268,-1.55389 0,-0.85916 -0.696571,-1.55467 -1.556268,-1.55467 m 1.819126,-3.14407 c -0.800168,0 -1.448807,0.64765 -1.448807,1.44583 0,0.79894 0.648639,1.44582 1.448807,1.44582 0.800168,0 1.44726,-0.64688 1.44726,-1.44582 0,-0.79818 -0.648638,-1.44583 -1.44726,-1.44583 m 3.899563,-0.83291 c -0.882118,0 -1.597244,0.71326 -1.597244,1.59326 0,0.88 0.715126,1.59404 1.597244,1.59404 0.881344,0 1.594924,-0.71404 1.594924,-1.59404 7.73e-4,-0.88 -0.71358,-1.59326 -1.594924,-1.59326 m 4.51805,-0.29179 c -1.11637,0 -2.021681,0.90316 -2.021681,2.01782 0,1.1139 0.905311,2.01706 2.021681,2.01706 1.115597,0 2.020908,-0.90316 2.020908,-2.01706 0,-1.11466 -0.905311,-2.01782 -2.020908,-2.01782 m -5.150454,3.90983 c -1.135697,0 -2.055697,0.91936 -2.055697,2.05178 0,1.13397 0.92,2.05179 2.055697,2.05179 1.133378,0 2.052605,-0.91782 2.052605,-2.05179 0,-1.13319 -0.919227,-2.05178 -2.052605,-2.05178 m -6.796403,3.86119 c -1.184403,0 -2.143832,0.95951 -2.143832,2.14133 0,1.18337 0.959429,2.14133 2.144605,2.14133 1.182857,0 2.143832,-0.95796 2.143832,-2.14133 0,-1.18182 -0.960975,-2.14133 -2.144605,-2.14133 m 5.534689,0.68547 c -1.498286,0 -2.711294,1.21347 -2.71284,2.70793 0,1.496 1.214554,2.70716 2.71284,2.70793 1.497513,0 2.711294,-1.21193 2.710521,-2.70793 0,-1.49446 -1.213008,-2.70793 -2.710521,-2.70793 m 5.944437,2.72414 c -1.813714,0 -3.284941,1.46898 -3.284941,3.27993 0,1.81172 1.471227,3.27993 3.284941,3.27993 1.814487,0 3.284168,-1.46821 3.284168,-3.27993 0,-1.81095 -1.469681,-3.27993 -3.284168,-3.27993 m 13.209345,1.45509 c -2.138421,0 -3.871732,1.72989 -3.870958,3.86582 -7.74e-4,2.13439 1.732537,3.86429 3.870958,3.86429 2.13842,0 3.870957,-1.7299 3.871731,-3.86429 -7.74e-4,-2.13593 -1.734084,-3.86582 -3.871731,-3.86582 m -7.878757,4.05109 c -2.187899,0 -3.961411,1.7708 -3.961411,3.95614 0,2.18456 1.773512,3.95537 3.961411,3.95537 2.187899,0 3.962185,-1.77081 3.961412,-3.95537 7.73e-4,-2.18534 -1.773513,-3.95614 -3.961412,-3.95614 m 5.101748,7.68533 c -2.449983,0 -4.437647,1.98463 -4.437647,4.43165 0,2.44547 1.987664,4.42933 4.437647,4.42933 2.450756,0 4.437647,-1.98386 4.437647,-4.42933 0,-2.44702 -1.986891,-4.43165 -4.437647,-4.43165 m 9.778286,16.60421 c -1.477412,0 -2.676504,1.19495 -2.676504,2.67088 0,1.47593 1.199092,2.67087 2.676504,2.67087 1.476639,0 2.674958,-1.19494 2.674958,-2.67087 0,-1.47593 -1.198319,-2.67088 -2.674958,-2.67088 m 1.311966,6.7899 c -1.411697,0 -2.557445,1.144 -2.557445,2.55354 0,1.40954 1.145748,2.55354 2.557445,2.55354 1.413244,0 2.558219,-1.144 2.558219,-2.55354 0,-1.40954 -1.144975,-2.55354 -2.558219,-2.55354 m -5.299664,3.54315 c -1.69079,0 -3.059966,1.36709 -3.059966,3.0553 0,1.68667 1.369176,3.0553 3.059966,3.0553 1.689244,0 3.059194,-1.36863 3.059194,-3.0553 0,-1.68821 -1.36995,-3.0553 -3.059194,-3.0553 m -6.77321,2.99895 c -1.81526,0 -3.288033,1.46975 -3.288033,3.28147 0,1.81404 1.472773,3.28302 3.288033,3.28302 1.815261,0 3.287261,-1.46898 3.287261,-3.28302 0,-1.81172 -1.472,-3.28147 -3.287261,-3.28147 m -7.863294,1.06063 c -1.951328,0 -3.534655,1.58014 -3.534655,3.52772 0,1.94912 1.583327,3.52926 3.534655,3.52926 1.951328,0 3.533109,-1.58014 3.533109,-3.52926 0,-1.94758 -1.581781,-3.52772 -3.533109,-3.52772 m -4.436101,-8.21565 c -2.251294,0 -4.075832,1.82176 -4.075832,4.06885 0,2.24708 1.824538,4.07038 4.075832,4.07038 2.249748,0 4.075059,-1.8233 4.075059,-4.07038 0,-2.24709 -1.825311,-4.06885 -4.075059,-4.06885 m 17.040101,-3.11396 c -1.785882,0 -3.23237,1.44582 -3.23237,3.22821 0,1.78316 1.446488,3.22898 3.23237,3.22898 1.786656,0 3.233143,-1.44582 3.233143,-3.22898 0,-1.78239 -1.446487,-3.22821 -3.233143,-3.22821 m 14.397614,-24.2193 c -0.492471,0 -0.891395,0.39909 -0.891395,0.89158 0,0.49172 0.398924,0.89003 0.891395,0.89003 0.49247,0 0.892941,-0.39831 0.892941,-0.89003 0,-0.49249 -0.400471,-0.89158 -0.892941,-0.89158 m 0.30847,2.92021 c -0.737546,0 -1.335159,0.59747 -1.335159,1.3339 0,0.73642 0.597613,1.33389 1.335159,1.33389 0.739093,0 1.336706,-0.59747 1.336706,-1.33389 0,-0.73643 -0.597613,-1.3339 -1.336706,-1.3339 m -1.979933,3.33165 c -0.949378,0 -1.717075,0.7673 -1.717075,1.71368 0,0.94716 0.767697,1.71523 1.717075,1.71523 0.947059,0 1.716303,-0.76807 1.716303,-1.71523 0,-0.94638 -0.769244,-1.71368 -1.716303,-1.71368 m 3.210723,0.41761 c -0.545042,0 -0.984941,0.44078 -0.984941,0.98344 0,0.54344 0.439899,0.98421 0.984941,0.98421 0.544269,0 0.984168,-0.44077 0.984168,-0.98421 0,-0.54266 -0.439899,-0.98344 -0.984168,-0.98344 m 0.06803,6.63088 c -0.589109,0 -1.065345,0.47628 -1.065345,1.06449 0,0.58667 0.476236,1.06372 1.065345,1.06372 0.589109,0 1.065344,-0.47705 1.065344,-1.06372 0,-0.58821 -0.476235,-1.06449 -1.065344,-1.06449 m -0.880572,-3.57249 c -0.787798,0 -1.42484,0.63839 -1.42484,1.42498 0,0.7866 0.637042,1.42344 1.42484,1.42344 0.787799,0 1.425614,-0.63684 1.425614,-1.42344 0,-0.78659 -0.637815,-1.42498 -1.425614,-1.42498 m -2.253613,4.34288 c -0.860471,0 -1.557042,0.69473 -1.557042,1.55466 0,0.85762 0.696571,1.5539 1.557042,1.5539 0.859697,0 1.557042,-0.69628 1.557042,-1.5539 0,-0.85993 -0.697345,-1.55466 -1.557042,-1.55466 m 1.911899,3.30694 c -0.800168,0 -1.448034,0.64688 -1.448034,1.44506 0,0.79972 0.647866,1.44737 1.448034,1.44737 0.799395,0 1.44726,-0.64765 1.44726,-1.44737 0,-0.79818 -0.647865,-1.44506 -1.44726,-1.44506 m -1.356034,3.56709 c -0.880571,0 -1.595697,0.71326 -1.595697,1.59326 0,0.88 0.715126,1.59327 1.595697,1.59327 0.882118,0 1.596471,-0.71327 1.596471,-1.59327 0,-0.88 -0.714353,-1.59326 -1.596471,-1.59326 m -2.392,3.40653 c -1.115596,0 -2.020907,0.90393 -2.020907,2.01705 0,1.11467 0.905311,2.01705 2.020907,2.01705 1.11637,0 2.020135,-0.90238 2.020135,-2.01705 0,-1.11312 -0.903765,-2.01705 -2.020135,-2.01705 m -0.826453,-6.45102 c -1.134925,0 -2.055698,0.9186 -2.055698,2.05256 0,1.13242 0.920773,2.05102 2.055698,2.05102 1.134151,0 2.054151,-0.9186 2.054151,-2.05102 0,-1.13396 -0.92,-2.05256 -2.054151,-2.05256 m -0.02938,-7.94007 c -1.183631,0 -2.145379,0.95951 -2.145379,2.14133 0,1.18183 0.961748,2.14057 2.145379,2.14057 1.184403,0 2.144605,-0.95874 2.144605,-2.14057 0,-1.18182 -0.960202,-2.14133 -2.144605,-2.14133 m -3.854723,3.59256 c -1.495967,0 -2.710521,1.21193 -2.710521,2.70793 0,1.49523 1.214554,2.70716 2.710521,2.70716 1.497512,0 2.71284,-1.21193 2.71284,-2.70716 0,-1.496 -1.215328,-2.70793 -2.71284,-2.70793 m -5.830017,2.92021 c -1.81526,0 -3.285714,1.46821 -3.285714,3.27993 0,1.81172 1.470454,3.2807 3.285714,3.2807 1.813714,0 3.284168,-1.46898 3.284168,-3.2807 0,-1.81172 -1.470454,-3.27993 -3.284168,-3.27993 m -8.375092,9.81663 c -2.136874,0 -3.870958,1.73067 -3.870958,3.86583 0,2.13438 1.734084,3.86582 3.870958,3.86582 2.13842,0 3.871731,-1.73144 3.871731,-3.86582 0,-2.13516 -1.733311,-3.86583 -3.871731,-3.86583 m 0.347126,-8.97368 c -2.1879,0 -3.961412,1.77081 -3.961412,3.95614 0,2.18456 1.773512,3.95537 3.961412,3.95537 2.188672,0 3.962958,-1.77081 3.962958,-3.95537 0,-2.18533 -1.774286,-3.95614 -3.962958,-3.95614 m -5.191429,4.28807 c 0,2.44625 -1.986118,4.42933 -4.436874,4.42933 -2.449983,0 -4.436874,-1.98308 -4.436874,-4.42933 0,-2.44779 1.986891,-4.43165 4.436874,-4.43165 2.450756,0 4.436874,1.98386 4.436874,4.43165" />
    </g>
  </g>
</svg>
